<?xml version="1.0" encoding="utf-8"?>
<!-- Generator: Adobe Illustrator 25.4.1, SVG Export Plug-In . SVG Version: 6.00 Build 0)  -->
<svg version="1.1" id="Outline_copy" xmlns="http://www.w3.org/2000/svg" xmlns:xlink="http://www.w3.org/1999/xlink" x="0px"
	 y="0px" viewBox="0 0 300 300" style="enable-background:new 0 0 300 300;" xml:space="preserve">
<style type="text/css">
	.st0{fill:#FFA500;}
</style>
<path class="st0" d="M150,0C67.2,0,0,67.2,0,150s67.2,150,150,150s150-67.2,150-150S232.8,0,150,0z M68.6,104.4
	c1.8-7.2,10-17.9,17.6-27.9c9.2-12.2,18.5-23,18.5-23s9.2,10.9,18.5,23c7.5,10,15.7,20.7,17.5,27.9c3.7,14.5-3.2,25-14.8,25
	c-14.7,0-15.2-11.4-15.2-11.4s-3.8,18.3,18.3,18.3l-1,3.4H81.4l-1-3.4c22.1,0,18.3-18.3,18.3-18.3s-0.5,11.4-15.2,11.4
	C71.8,129.4,65,118.9,68.6,104.4z M127.3,219.7c-9.2,11.8-17.8,21.9-22.6,29.3c-4.8-7.4-13.5-17.5-22.6-29.3
	c-10.8-13.9-15.5-24.4-15.5-36s7.4-21,17.4-21s20.7,7,20.7,20.6c0-13.6,10.6-20.6,20.7-20.6s17.4,9.4,17.4,21
	S138.1,205.8,127.3,219.7z M192,51c9.4,16.8,20.7,32.4,33.8,46.5C213.3,112,202,127.6,192,144c-10-16.4-21.3-31.9-33.8-46.5
	C171.3,83.4,182.6,67.8,192,51z M218.1,235.4c-5.2,0.9-10.8,0.2-13.9-1.6c-2.9-1.7-5.1-4.4-6.1-7.6c0,0-3.8,18.3,18.3,18.3l-1,3.4
	h-46.7l-1-3.4c22,0,18.3-18.3,18.3-18.3c-1.1,3.2-3.2,5.9-6.1,7.6c-3.2,1.8-8.7,2.6-13.9,1.6c-8.3-1.5-15.4-9.3-15.4-20.9
	c0-9.8,8.1-17.4,15.4-18.8c5.3-1.1,9.5-0.7,14.6,2.6c-1.7-1.4-3.3-2.8-4.9-4.4c-2.9-3.2-4.5-7.4-4.5-12.9s3.3-11.1,7-14.3
	c5-4.4,11.6-5,13.9-5s8.9,0.6,13.9,5c3.7,3.2,7,8.8,7,14.3s-1.6,9.7-4.5,12.9c-1.5,1.6-3.1,3-4.8,4.4c5-3.3,9.3-3.6,14.6-2.6
	c7.3,1.5,15.4,9.1,15.4,18.8C233.4,226.1,226.3,234,218.1,235.4L218.1,235.4z"/>
</svg>
