<?xml version="1.0" encoding="utf-8"?>
<!-- Generator: Adobe Illustrator 25.4.1, SVG Export Plug-In . SVG Version: 6.00 Build 0)  -->
<svg version="1.1" id="Outline" xmlns="http://www.w3.org/2000/svg" xmlns:xlink="http://www.w3.org/1999/xlink" x="0px" y="0px"
	 viewBox="0 0 300 300" style="enable-background:new 0 0 300 300;" xml:space="preserve">
<style type="text/css">
	.st0{fill:#FFA500;}
</style>
<path class="st0" d="M150,0C67.2,0,0,67.2,0,150s67.2,150,150,150s150-67.2,150-150S232.8,0,150,0z M150,286.1
	c-75.2,0-136.1-60.9-136.1-136.1S74.8,13.9,150,13.9S286.1,74.8,286.1,150C286.1,225.2,225.2,286.1,150,286.1z"/>
<path class="st0" d="M125.3,162.7c-10.1,0-20.7,7-20.7,20.6c0-13.6-10.6-20.6-20.7-20.6s-17.4,9.4-17.4,21s4.7,22.2,15.5,36
	c9.2,11.8,17.8,21.9,22.6,29.3c4.8-7.4,13.5-17.5,22.6-29.3c10.8-13.9,15.5-24.4,15.5-36S135.4,162.7,125.3,162.7z"/>
<path class="st0" d="M218.1,195.7c-5.3-1.1-9.5-0.7-14.6,2.6c1.7-1.4,3.3-2.8,4.8-4.4c2.9-3.2,4.5-7.4,4.5-12.9s-3.3-11.1-7-14.3
	c-5-4.4-11.6-5-13.9-5s-8.9,0.6-13.9,5c-3.7,3.2-7,8.8-7,14.3s1.6,9.7,4.5,12.9c1.5,1.6,3.1,3,4.9,4.4c-5-3.3-9.3-3.6-14.6-2.6
	c-7.3,1.5-15.4,9.1-15.4,18.8c0,11.6,7.1,19.5,15.4,20.9c5.2,0.9,10.8,0.2,13.9-1.6c2.9-1.7,5-4.4,6.1-7.6c0,0,3.8,18.3-18.3,18.3
	l1,3.4h46.6l1-3.4c-22.1,0-18.3-18.3-18.3-18.3c1.1,3.2,3.2,5.9,6.1,7.6c3.2,1.8,8.7,2.6,13.9,1.6c8.3-1.5,15.4-9.3,15.4-20.9
	C233.4,204.7,225.4,197.1,218.1,195.7z"/>
<path class="st0" d="M192,51c-9.4,16.8-20.7,32.4-33.8,46.5C170.7,112,182,127.6,192,144c10-16.4,21.3-31.9,33.8-46.5
	C212.7,83.4,201.4,67.8,192,51z"/>
<path class="st0" d="M125.9,129.4c11.6,0,18.5-10.5,14.8-25c-1.8-7.2-10-17.9-17.5-27.9c-9.2-12.2-18.5-23-18.5-23
	s-9.2,10.9-18.5,23c-7.6,10-15.7,20.7-17.6,27.9c-3.7,14.5,3.2,25,14.8,25c14.7,0,15.2-11.4,15.2-11.4s3.8,18.3-18.3,18.3l1,3.4H128
	l1-3.4c-22.1,0-18.3-18.3-18.3-18.3S111.2,129.4,125.9,129.4z"/>
</svg>
