<?xml version="1.0" encoding="utf-8"?>
<!-- Generator: Adobe Illustrator 25.4.1, SVG Export Plug-In . SVG Version: 6.00 Build 0)  -->
<svg version="1.1" id="Outline_copy" xmlns="http://www.w3.org/2000/svg" xmlns:xlink="http://www.w3.org/1999/xlink" x="0px"
	 y="0px" viewBox="0 0 300 300" style="enable-background:new 0 0 300 300;" xml:space="preserve">
<style type="text/css">
	.st0{fill:#FFA500;}
</style>
<path class="st0" d="M150,0C67.2,0,0,67.2,0,150s67.2,150,150,150s150-67.2,150-150S232.8,0,150,0z M108.2,197.6
	c1.5,1.2,2.4,3,2.6,4.9c0.3,3.8-2.6,7.1-6.4,7.4c-0.1,0-0.2,0-0.3,0c-2,0-3.8-0.8-5.2-2.1l-57.6-52c-1.1-1-1.9-2.2-2.3-3.6
	c-0.4-1.3-0.2-2.8,0-4.1c0.4-1.4,1.2-2.7,2.3-3.7l57.6-52c1.4-1.4,3.3-2.1,5.2-2.1c1.9,0,3.7,0.8,4.9,2.2c1.3,1.4,1.9,3.2,1.7,5.1
	c-0.2,1.9-1.1,3.7-2.6,5L55.8,150L108.2,197.6z M179.5,73.7l-45.6,156.6c-0.5,1.9-1.8,3.5-3.4,4.6c-1.6,1-3.6,1.2-5.3,0.6
	c-1.8-0.5-3.3-1.7-4.2-3.4c-0.9-1.8-1-3.8-0.4-5.7l45.7-156.6c0.5-1.9,1.7-3.5,3.4-4.6c1.6-1,3.6-1.2,5.4-0.7
	c1.8,0.5,3.3,1.7,4.1,3.4C179.9,69.8,180.1,71.8,179.5,73.7z M258.7,155.7l-57.6,52c-1.4,1.4-3.3,2.2-5.3,2.2
	c-1.9,0-3.7-0.8-4.9-2.3c-1.3-1.4-2-3.2-1.8-5.1c0.2-1.9,1.1-3.7,2.6-5l52.5-47.5l-52.5-47.4c-1.5-1.3-2.4-3.1-2.6-5
	c-0.2-1.9,0.5-3.7,1.8-5.1c1.2-1.5,3-2.3,4.9-2.3c2,0,3.9,0.8,5.3,2.2l57.6,52c1.1,1,1.9,2.2,2.3,3.6c0.4,1.3,0.4,2.8,0,4.1
	C260.6,153.5,259.8,154.7,258.7,155.7L258.7,155.7z"/>
</svg>
