<?xml version="1.0" encoding="utf-8"?>
<!-- Generator: Adobe Illustrator 25.4.1, SVG Export Plug-In . SVG Version: 6.00 Build 0)  -->
<svg version="1.1" id="Layer_1" xmlns="http://www.w3.org/2000/svg" xmlns:xlink="http://www.w3.org/1999/xlink" x="0px" y="0px"
	 viewBox="0 0 300 300" style="enable-background:new 0 0 300 300;" xml:space="preserve">
<style type="text/css">
	.st0{fill:#FFA500;}
</style>
<path class="st0" d="M150,0C67.2,0,0,67.2,0,150s67.2,150,150,150s150-67.2,150-150S232.8,0,150,0z M150,286.1
	c-75.2,0-136.1-60.9-136.1-136.1S74.8,13.9,150,13.9S286.1,74.8,286.1,150C286.1,225.2,225.2,286.1,150,286.1z"/>
<path class="st0" d="M41.3,155.7c-1.1-1-1.9-2.2-2.3-3.6c-0.4-1.3-0.4-2.8,0-4.1c0.4-1.4,1.2-2.7,2.3-3.7l57.6-52
	c1.4-1.4,3.3-2.1,5.2-2.1c1.9,0,3.7,0.8,4.9,2.2c1.3,1.4,1.9,3.2,1.7,5.1c-0.2,1.9-1.1,3.7-2.6,5L55.8,150l52.5,47.5
	c1.5,1.2,2.4,3,2.6,4.9c0.3,3.8-2.6,7.1-6.4,7.4c-0.1,0-0.2,0-0.3,0c-2,0-3.8-0.8-5.2-2.1L41.3,155.7z M120.9,232
	c-0.9-1.8-1-3.8-0.4-5.7l45.7-156.5c0.5-1.9,1.7-3.5,3.4-4.6c1.6-1,3.6-1.2,5.4-0.7c1.8,0.5,3.3,1.8,4.1,3.4c0.9,1.8,1,3.8,0.4,5.7
	l-45.6,156.6c-0.5,1.9-1.8,3.5-3.4,4.6c-1.6,1-3.6,1.2-5.3,0.6C123.3,235,121.7,233.7,120.9,232z M195.9,209.8
	c-1.9,0-3.7-0.8-4.9-2.3c-1.3-1.4-2-3.2-1.8-5.1c0.2-1.9,1.1-3.7,2.6-5l52.4-47.4l-52.5-47.4c-1.5-1.3-2.4-3.1-2.6-5
	c-0.2-1.9,0.5-3.7,1.8-5.1c1.2-1.5,3-2.3,4.9-2.3c2,0,3.9,0.8,5.3,2.2l57.6,52c1.1,1,1.9,2.2,2.3,3.6c0.4,1.3,0.4,2.8,0,4.1
	c-0.4,1.4-1.2,2.7-2.3,3.7l-57.6,52C199.7,209.1,197.8,209.9,195.9,209.8L195.9,209.8z"/>
</svg>
