<?xml version="1.0" encoding="utf-8"?>
<!-- Generator: Adobe Illustrator 25.4.1, SVG Export Plug-In . SVG Version: 6.00 Build 0)  -->
<svg version="1.1" id="Outline_copy" xmlns="http://www.w3.org/2000/svg" xmlns:xlink="http://www.w3.org/1999/xlink" x="0px"
	 y="0px" viewBox="0 0 300 300" style="enable-background:new 0 0 300 300;" xml:space="preserve">
<style type="text/css">
	.st0{fill:#FFA500;}
</style>
<path class="st0" d="M150,0C67.2,0,0,67.2,0,150s67.2,150,150,150s150-67.2,150-150S232.8,0,150,0z M185.8,60.2c1.3,1,2.5,2,3.6,3.2
	l31.7,32.3c1.2,1.1,2.2,2.4,3.2,3.7c0.7,1,1.2,2.2,1.5,3.4h-39.1c-2.8,0-4.2-1.4-4.2-4.3l-0.1-39.7C183.6,59,184.7,59.5,185.8,60.2z
	 M190.3,220.8c0,7.8-1.9,13.7-5.8,17.6c-3.9,3.9-9.7,5.9-17.4,5.9H96.6c-7.7,0-13.6-2-17.4-5.9c-3.9-3.9-5.8-9.8-5.8-17.6V116.7
	c0-7.8,1.9-13.7,5.8-17.6s9.7-5.9,17.4-5.9h27.2v54.3c0,4.8,1.2,8.4,3.4,10.7c2.3,2.3,5.9,3.5,10.8,3.5h52.3L190.3,220.8z
	 M134,147.4V95c1.6,0.5,3.1,1.2,4.4,2.2c1.7,1.3,3.2,2.7,4.7,4.2l40,40.8c1.5,1.4,2.8,3,3.9,4.7c0.9,1.3,1.5,2.8,1.9,4.3h-51
	C135.3,151.3,134,150,134,147.4z M226.6,183.4c0.1,3.5-0.4,6.9-1.5,10.3c-0.9,2.8-2.4,5.3-4.4,7.4c-2.1,2-4.5,3.5-7.3,4.4
	c-3.3,1.1-6.7,1.6-10.1,1.5h-2.9v-43.3c0-4.8-0.6-9.7-1.8-14.4c-1.2-4.5-3.9-8.8-8.1-13l-42.6-42.5c-3.6-3.8-8-6.7-12.9-8.5
	c-4.7-1.5-9.6-2.3-14.5-2.2h-10.9v-4.3c0-7.5,2-13.2,5.9-17.1c3.9-3.9,9.7-5.9,17.4-5.8h40V100c0,3.9,1.1,6.9,3.2,9s5.2,3.2,9.1,3.2
	h41.4L226.6,183.4z"/>
</svg>
