<?xml version="1.0" encoding="utf-8"?>
<!-- Generator: Adobe Illustrator 25.4.1, SVG Export Plug-In . SVG Version: 6.00 Build 0)  -->
<svg version="1.1" id="Layer_1" xmlns="http://www.w3.org/2000/svg" xmlns:xlink="http://www.w3.org/1999/xlink" x="0px" y="0px"
	 viewBox="0 0 300 300" style="enable-background:new 0 0 300 300;" xml:space="preserve">
<style type="text/css">
	.st0{fill:#FFA500;}
</style>
<path class="st0" d="M150,0C67.2,0,0,67.2,0,150s67.2,150,150,150s150-67.2,150-150S232.8,0,150,0z M150,286.1
	c-75.2,0-136.1-60.9-136.1-136.1S74.8,13.9,150,13.9S286.1,74.8,286.1,150C286.1,225.2,225.2,286.1,150,286.1z"/>
<path class="st0" d="M79.2,238.4c-3.9-3.9-5.8-9.8-5.8-17.6V116.7c0-7.8,1.9-13.7,5.8-17.6s9.7-5.9,17.4-5.9h27.2v54.3
	c0,4.8,1.2,8.4,3.4,10.7c2.3,2.3,5.9,3.5,10.8,3.5h52.3v59.2c0,7.8-1.9,13.7-5.8,17.6s-9.7,5.9-17.4,5.9H96.6
	C88.9,244.3,83.1,242.3,79.2,238.4z M200.5,163.6c0-4.8-0.6-9.7-1.8-14.4c-1.2-4.5-3.9-8.8-8.1-13l-42.6-42.5
	c-3.6-3.8-8-6.7-12.9-8.5c-4.7-1.5-9.6-2.3-14.5-2.2h-10.9v-4.3c0-7.5,2-13.2,5.9-17.1c3.9-3.9,9.7-5.9,17.4-5.8h40V100
	c0,3.9,1.1,6.9,3.2,9s5.2,3.2,9.1,3.2h41.4v71.1c0.1,3.5-0.4,6.9-1.5,10.3c-0.9,2.8-2.4,5.3-4.4,7.4c-2.1,2-4.5,3.5-7.3,4.4
	c-3.3,1.1-6.7,1.6-10.1,1.5h-2.9L200.5,163.6z M134,147.4V95c1.6,0.5,3.1,1.2,4.4,2.2c1.7,1.3,3.2,2.7,4.7,4.2l40,40.8
	c1.5,1.4,2.8,3,3.9,4.7c0.9,1.3,1.5,2.8,1.9,4.3h-51C135.3,151.3,134,150,134,147.4L134,147.4z M182.4,98.5l-0.1-39.7
	c1.2,0.2,2.4,0.7,3.4,1.4c1.3,1,2.5,2,3.6,3.2l31.7,32.3c1.2,1.1,2.2,2.4,3.2,3.7c0.7,1,1.2,2.2,1.5,3.4h-39.1
	C183.8,102.8,182.4,101.4,182.4,98.5z"/>
</svg>
