<?xml version="1.0" encoding="utf-8"?>
<!-- Generator: Adobe Illustrator 25.4.1, SVG Export Plug-In . SVG Version: 6.00 Build 0)  -->
<svg version="1.1" id="Layer_1" xmlns="http://www.w3.org/2000/svg" xmlns:xlink="http://www.w3.org/1999/xlink" x="0px" y="0px"
	 viewBox="0 0 300 300" style="enable-background:new 0 0 300 300;" xml:space="preserve">
<style type="text/css">
	.st0{fill:#FFA500;}
</style>
<path class="st0" d="M150,0C67.2,0,0,67.2,0,150s67.2,150,150,150s150-67.2,150-150S232.8,0,150,0z M150,286.1
	c-75.2,0-136.1-60.9-136.1-136.1S74.8,13.9,150,13.9S286.1,74.8,286.1,150C286.1,225.2,225.2,286.1,150,286.1z"/>
<path class="st0" d="M112.5,95h97.9v-1.3c0-7.8-2-13.7-6-17.7c-4-4-10-6-17.9-6H75.1c-8,0-14,2-18,5.9c-4,3.9-6,9.9-6,17.8V171
	c0,7.9,2,13.8,6,17.8c4,3.9,10,5.9,18,5.9h4.1v-66.8c0-7.2,1.3-13.3,3.8-18.2c2.4-4.8,6.4-8.6,11.2-11C99.1,96.2,105.2,95,112.5,95z
	"/>
<path class="st0" d="M242.9,111.3c-4-4-10-6-17.9-6H113.6c-8,0-14,2-18,5.9c-4,3.9-6,9.9-6,17.8v77.3c0,7.9,2,13.8,6,17.8
	c4,3.9,10,5.9,18,5.9H225c7.9,0,13.9-2,17.9-5.9c4-4,6-9.9,6-17.7V129C248.9,121.2,246.9,115.3,242.9,111.3z M207.2,170.9
	c-1.1,1.2-2.5,2.2-4,2.9l-45.7,28.2c-0.9,0.5-1.8,0.9-2.6,1.2c-0.8,0.3-1.7,0.5-2.6,0.5c-1.5,0.1-3-0.6-4-1.8c-1-1.3-1.6-3-1.5-4.7
	v-59c-0.1-1.7,0.4-3.4,1.5-4.7c1-1.2,2.4-1.8,3.9-1.8c0.9,0,1.8,0.2,2.6,0.5c0.8,0.4,1.7,0.8,2.6,1.2l45.8,28.2
	c1.5,0.6,2.9,1.6,4,2.8C208.7,166.3,208.7,168.9,207.2,170.9L207.2,170.9z"/>
</svg>
