<?xml version="1.0" encoding="utf-8"?>
<!-- Generator: Adobe Illustrator 25.4.1, SVG Export Plug-In . SVG Version: 6.00 Build 0)  -->
<svg version="1.1" id="Outline_copy" xmlns="http://www.w3.org/2000/svg" xmlns:xlink="http://www.w3.org/1999/xlink" x="0px"
	 y="0px" viewBox="0 0 300 300" style="enable-background:new 0 0 300 300;" xml:space="preserve">
<style type="text/css">
	.st0{fill:#FFA500;}
</style>
<path class="st0" d="M206.1,162.4c-2.1-1.2-4.5-1.9-6.9-1.8c-2.5,0-4.9,0.6-7.1,1.8c-3.1,1.8-5.9,4-8.4,6.4l-29.1,26.3l-7-6.2
	c-3.5-3-6.4-5.5-8.9-7.4c-2.2-1.8-4.9-2.8-7.8-2.9c-2.7,0-5.4,1-7.4,2.8c-2.3,1.9-5.1,4.4-8.4,7.4l-12.8,11.6v6.3
	c0,3.4,0.9,6,2.6,7.8s4.3,2.7,7.8,2.7h113c3.3,0,5.9-0.9,7.8-2.7c1.8-1.8,2.7-4.4,2.7-7.8V191l-22.1-21.9
	C211.7,166.5,209,164.3,206.1,162.4z"/>
<path class="st0" d="M134.3,164.1c5.4,3.1,12,3.1,17.4,0c2.6-1.5,4.7-3.7,6.3-6.3c3.1-5.4,3.1-12,0-17.4c-1.5-2.6-3.7-4.8-6.3-6.3
	c-5.4-3.1-12-3.1-17.4,0c-2.6,1.5-4.8,3.7-6.3,6.3c-3.1,5.4-3.1,12.1,0,17.4C129.5,160.4,131.7,162.5,134.3,164.1z"/>
<path class="st0" d="M150,0C67.2,0,0,67.2,0,150s67.2,150,150,150s150-67.2,150-150S232.8,0,150,0z M83,109.7
	c-2.5,4.9-3.8,10.9-3.8,18.2v66.7h-4.2c-8,0-14-2-18-5.9c-4-3.9-6-9.9-6-17.8V93.7c0-7.9,2-13.8,6-17.8c4-3.9,10-5.9,18-5.9h111.4
	c7.9,0,13.9,2,17.9,6s6,9.9,6,17.7V95h-97.9c-7.3,0-13.4,1.2-18.3,3.7C89.3,101.1,85.4,104.9,83,109.7z M248.9,206.3
	c0,7.8-2,13.7-6,17.7c-4,4-10,6-17.9,6H113.6c-8,0-14-2-18-5.9c-4-3.9-6-9.9-6-17.8V129c0-7.9,2-13.8,6-17.8s10-5.9,18-5.9H225
	c7.9,0,13.9,2,17.9,6c4,4,6,9.9,6,17.7L248.9,206.3z"/>
</svg>
