<?xml version="1.0" encoding="utf-8"?>
<!-- Generator: Adobe Illustrator 25.4.1, SVG Export Plug-In . SVG Version: 6.00 Build 0)  -->
<svg version="1.1" id="Layer_1" xmlns="http://www.w3.org/2000/svg" xmlns:xlink="http://www.w3.org/1999/xlink" x="0px" y="0px"
	 viewBox="0 0 300 300" style="enable-background:new 0 0 300 300;" xml:space="preserve">
<style type="text/css">
	.st0{fill:#FFA500;}
</style>
<path class="st0" d="M150,0C67.2,0,0,67.2,0,150s67.2,150,150,150s150-67.2,150-150S232.8,0,150,0z M150,286.1
	c-75.2,0-136.1-60.9-136.1-136.1S74.8,13.9,150,13.9S286.1,74.8,286.1,150C286.1,225.2,225.2,286.1,150,286.1z"/>
<path id="S" class="st0" d="M98.4,222.4c-9-13.4-10.8-27.4-15.2-36.9c-0.9-1.8-3-2.6-4.8-1.7c-1.3,0.6-2.1,1.8-2.1,3.2l-1.8,45.7
	c0,1.1,0.7,2.1,1.8,2.5l0,0c1.8,0.6,3.2-4.9,4.2-3.4c11.1,17.1,36.4,30.9,66,30.9c18.3,0,28.4-1.7,39.6-6.7
	c23.4-10.3,39.4-32.2,39.4-58c0-42.4-36.6-62.4-60.5-71.5c-16-6.1-54.4-13-54.4-38.3c0-30.6,20.9-38,41-38
	c36.4,0,45.3,25.6,49.3,32.4c0.9,1.5,2.8,2,4.4,1.2c1-0.6,1.6-1.7,1.6-2.9l-1.7-35.2c-0.1-1-0.9-1.8-1.9-1.7c-0.4,0-0.8,0.2-1.1,0.4
	c-3.8,3.1-10.5,1.5-11.4,1.3h-0.1c-9-2.5-25.3-8.3-35.9-8.3c-46.9,0-68.7,18.5-68.7,57.6c0,33.7,27.2,46.4,59,58s48.9,24,48.9,50.3
	c0,18.7-14.7,46.6-46.8,46.6C113.7,249.9,103.2,229.6,98.4,222.4z"/>
</svg>
