<?xml version="1.0" encoding="utf-8"?>
<!-- Generator: Adobe Illustrator 25.4.1, SVG Export Plug-In . SVG Version: 6.00 Build 0)  -->
<svg version="1.1" id="Outline_copy" xmlns="http://www.w3.org/2000/svg" xmlns:xlink="http://www.w3.org/1999/xlink" x="0px"
	 y="0px" viewBox="0 0 300 300" style="enable-background:new 0 0 300 300;" xml:space="preserve">
<style type="text/css">
	.st0{fill:#FFA500;}
</style>
<path class="st0" d="M150,0C67.2,0,0,67.2,0,150s67.2,150,150,150s150-67.2,150-150S232.8,0,150,0z M186.1,256
	c-11.2,4.9-21.3,6.7-39.6,6.7c-29.6,0-54.9-13.7-66-30.9c-1-1.5-2.5,4-4.2,3.4c-1.1-0.4-1.8-1.4-1.8-2.5l1.8-45.6
	c0.1-2,1.7-3.6,3.7-3.5c1.4,0,2.6,0.8,3.2,2.1c4.3,9.5,6.2,23.5,15.2,36.9c4.8,7.2,15.3,27.4,48.7,27.4c32.2,0,46.9-27.9,46.9-46.6
	c0-26.4-17.1-38.9-48.8-50.4s-59-24.3-59-58c0-39.1,21.8-57.6,68.7-57.6c10.6,0,26.8,5.8,35.9,8.3h0.1c0.9,0.2,7.6,1.8,11.4-1.3
	c0.8-0.6,1.9-0.5,2.6,0.2c0.2,0.3,0.4,0.7,0.4,1.1l1.7,35.2c0.1,1.8-1.3,3.2-3.1,3.3c-1.2,0-2.3-0.6-2.9-1.6
	c-4-6.8-12.9-32.4-49.3-32.4c-20.1,0-41,7.4-41,38.1c0,25.4,38.3,32.3,54.4,38.3c24,9,60.5,29.1,60.5,71.5
	C225.5,223.8,209.5,245.7,186.1,256z"/>
</svg>
