<?xml version="1.0" encoding="utf-8"?>
<!-- Generator: Adobe Illustrator 25.4.1, SVG Export Plug-In . SVG Version: 6.00 Build 0)  -->
<svg version="1.1" id="Layer_1" xmlns="http://www.w3.org/2000/svg" xmlns:xlink="http://www.w3.org/1999/xlink" x="0px" y="0px"
	 viewBox="0 0 300 300" style="enable-background:new 0 0 300 300;" xml:space="preserve">
<style type="text/css">
	.st0{fill:#FFA500;}
</style>
<path class="st0" d="M150,0C67.2,0,0,67.2,0,150s67.2,150,150,150s150-67.2,150-150S232.8,0,150,0z M150,286.1
	c-75.2,0-136.1-60.9-136.1-136.1S74.8,13.9,150,13.9S286.1,74.8,286.1,150C286.1,225.2,225.2,286.1,150,286.1z"/>
<path class="st0" d="M29.5,120.8V95.2h75.1v25.6H81.9v90H51.8v-90H29.5z"/>
<path class="st0" d="M179.8,95.2v24.6h-38.4v19.7h35.9v23.6h-35.9v23h39.8v24.6h-69.9V95.2H179.8z"/>
<path class="st0" d="M235.9,95.2c8.7,0,15.5,1.6,20.4,4.8c4.8,3.1,8.6,7.6,10.9,12.8c2.6,5.8,4.1,12.1,4.5,18.4
	c0.5,7,0.8,14.2,0.8,21.8s-0.3,14.8-0.8,21.8c-0.4,6.4-1.9,12.6-4.5,18.4c-2.3,5.2-6.1,9.7-10.9,12.8c-4.9,3.2-11.7,4.8-20.4,4.8
	h-43.7V95.2H235.9z M228.3,189.1c2.4,0.1,4.8-0.3,7-1.2c1.7-0.8,3.1-2.5,4-5.1c1.1-3.6,1.7-7.3,1.8-11c0.3-4.7,0.4-11,0.4-18.8
	c0-7.8-0.1-14-0.4-18.8c-0.1-3.7-0.7-7.4-1.8-11c-0.9-2.6-2.3-4.3-4-5.1c-2.2-0.9-4.6-1.3-7-1.2h-6v72.2L228.3,189.1z"/>
</svg>
