<?xml version="1.0" encoding="utf-8"?>
<!-- Generator: Adobe Illustrator 25.4.1, SVG Export Plug-In . SVG Version: 6.00 Build 0)  -->
<svg version="1.1" id="Outline_copy" xmlns="http://www.w3.org/2000/svg" xmlns:xlink="http://www.w3.org/1999/xlink" x="0px"
	 y="0px" viewBox="0 0 300 300" style="enable-background:new 0 0 300 300;" xml:space="preserve">
<style type="text/css">
	.st0{fill:#FFA500;}
</style>
<path class="st0" d="M150,0C67.2,0,0,67.2,0,150s67.2,150,150,150s150-67.2,150-150S232.8,0,150,0z M220.6,95.7L233,83.3
	c2.7-2.5,6.9-2.3,9.4,0.4c2.4,2.6,2.4,6.5,0,9.1L230.1,105c-1.3,1.3-3,2-4.8,2c-1.8,0-3.5-0.7-4.7-2c-1.3-1.2-2-2.9-1.9-4.6
	C218.6,98.6,219.3,96.9,220.6,95.7z M176.6,65.5c0-1.8,0.7-3.5,2-4.8c1.3-1.3,3-2,4.8-1.9c1.8,0,3.5,0.7,4.7,1.9c1.3,1.2,2,3,2,4.8
	v17.4c0,1.8-0.7,3.5-2,4.7c-1.2,1.3-2.9,2-4.7,2c-3.7,0-6.7-3-6.8-6.7L176.6,65.5z M124.3,83.3c2.6-2.6,6.8-2.6,9.3,0l12.5,12.4
	c1.2,1.3,1.9,3,1.9,4.7c0,1.7-0.6,3.4-1.9,4.6c-1.2,1.3-3,2-4.8,2c-1.8,0-3.6-0.7-4.8-2l-12.2-12.3
	C121.8,90.1,121.8,85.9,124.3,83.3z M189,201.7c-7.4,12.3-20.8,19.7-35.1,19.5H66.8c-6,0.1-12-1.2-17.4-3.9
	c-4.8-2.4-8.9-6.1-11.8-10.7c-2.9-4.8-4.3-10.3-4.2-15.9c-0.1-6.7,2-13.3,6.1-18.7c4.1-5.4,9.8-9.3,16.4-11.2
	c0.5-6.4,2.3-12.7,5.2-18.4c5.7-11.3,15.3-20.1,27-24.8c5.9-2.4,12.2-3.6,18.6-3.6c12.6-0.1,24.7,4.6,34,13.1
	c4.8,4.4,8.7,9.6,11.6,15.4c7.5-0.1,14.9,1.7,21.6,5.2c6.1,3.2,11.3,8,15,13.9c3.7,6,5.6,12.9,5.5,19.9
	C194.5,188.7,192.6,195.6,189,201.7z M204.1,176.7c-0.6-7.6-3-15-7-21.5c-3.9-6.2-9.3-11.3-15.7-14.9c-7.2-3.9-15.1-6.2-23.2-6.6
	c-1.2-2.3-2.5-4.4-4-6.4c-1.5-1.9-3-3.8-4.8-5.5c3.4-5.8,8.2-10.7,14-14.1c12.4-7.1,27.6-7.1,40,0c5.9,3.5,10.9,8.5,14.4,14.4
	c3.6,6.1,5.4,13.1,5.4,20.2c0.1,6.8-1.7,13.6-5.1,19.5C214.6,167.8,209.8,172.9,204.1,176.7L204.1,176.7z M242.3,201.2
	c-1.2,1.3-2.9,2-4.7,2c-1.8,0.1-3.5-0.6-4.7-1.9L220.6,189c-2.6-2.6-2.6-6.8,0-9.4c1.2-1.3,2.9-1.9,4.7-1.9c1.7,0,3.4,0.7,4.7,1.9
	l12.4,12.3C244.9,194.5,244.9,198.7,242.3,201.2L242.3,201.2z M260,148.9h-17.4c-1.8,0-3.5-0.7-4.7-1.9c-1.3-1.2-2-2.9-2-4.7
	c0-1.8,0.7-3.5,2-4.8c1.2-1.3,2.9-1.9,4.7-1.9H260c1.8,0,3.4,0.7,4.7,1.9c1.3,1.3,2,3,1.9,4.8C266.6,145.9,263.7,148.9,260,148.9
	C260,148.9,260,148.9,260,148.9L260,148.9z"/>
</svg>
