<?xml version="1.0" encoding="utf-8"?>
<!-- Generator: Adobe Illustrator 25.4.1, SVG Export Plug-In . SVG Version: 6.00 Build 0)  -->
<svg version="1.1" id="Layer_1" xmlns="http://www.w3.org/2000/svg" xmlns:xlink="http://www.w3.org/1999/xlink" x="0px" y="0px"
	 viewBox="0 0 300 300" style="enable-background:new 0 0 300 300;" xml:space="preserve">
<style type="text/css">
	.st0{fill:#FFA500;}
</style>
<path class="st0" d="M150,0C67.2,0,0,67.2,0,150s67.2,150,150,150s150-67.2,150-150S232.8,0,150,0z M150,286.1
	c-75.2,0-136.1-60.9-136.1-136.1S74.8,13.9,150,13.9S286.1,74.8,286.1,150C286.1,225.2,225.2,286.1,150,286.1z"/>
<path class="st0" d="M49.3,217.4c-4.8-2.4-8.9-6.1-11.8-10.7c-2.9-4.8-4.3-10.3-4.2-15.9c-0.1-6.7,2-13.3,6.1-18.7
	c4.1-5.4,9.8-9.3,16.4-11.2c0.5-6.4,2.3-12.7,5.2-18.4c5.7-11.3,15.3-20.1,27-24.8c5.9-2.4,12.2-3.6,18.6-3.6
	c12.6-0.1,24.7,4.6,34,13.1c4.8,4.4,8.7,9.6,11.6,15.4c7.5-0.1,14.9,1.7,21.6,5.2c6.1,3.2,11.3,8,15,13.9c3.7,6,5.6,12.9,5.5,19.9
	c0.1,7.1-1.8,14-5.4,20.1c-7.4,12.3-20.8,19.7-35.1,19.5H66.8C60.7,221.3,54.7,220,49.3,217.4z M124.3,92.7
	c-2.7-2.5-2.9-6.7-0.4-9.4s6.7-2.9,9.4-0.4c0.1,0.1,0.2,0.2,0.3,0.3l12.5,12.4c1.2,1.3,1.9,3,1.9,4.7c0,1.7-0.6,3.4-1.9,4.6
	c-1.2,1.3-3,2-4.8,2c-1.8,0-3.6-0.7-4.8-2L124.3,92.7z M197.1,155.3c-3.9-6.2-9.3-11.3-15.7-14.9c-7.2-3.9-15.1-6.2-23.2-6.6
	c-1.2-2.3-2.5-4.4-4-6.4c-1.5-1.9-3-3.8-4.8-5.5c3.4-5.8,8.2-10.7,14-14.1c12.4-7.1,27.6-7.1,40,0c5.9,3.5,10.9,8.5,14.4,14.4
	c3.6,6.1,5.4,13.1,5.4,20.2c0.1,6.8-1.7,13.6-5.1,19.5c-3.5,6-8.3,11.1-14,14.9C203.4,169.2,201.1,161.8,197.1,155.3L197.1,155.3z
	 M178.6,87.5c-1.3-1.2-2-2.9-2-4.7V65.5c0-1.8,0.7-3.5,2-4.8c1.3-1.3,3-2,4.8-1.9c1.8,0,3.5,0.7,4.7,1.9c1.3,1.2,2,3,2,4.8v17.4
	c0,1.8-0.7,3.5-2,4.7c-1.2,1.3-2.9,2-4.7,2C181.6,89.6,179.8,88.8,178.6,87.5z M218.6,100.4c0-1.8,0.7-3.5,1.9-4.7L233,83.3
	c2.7-2.5,6.9-2.3,9.4,0.4c2.4,2.6,2.4,6.5,0,9.1L230.1,105c-1.3,1.3-3,2-4.8,2c-1.8,0-3.5-0.7-4.7-2
	C219.3,103.8,218.6,102.1,218.6,100.4z M220.6,189c-2.6-2.6-2.6-6.8,0-9.4c1.2-1.3,2.9-1.9,4.7-1.9c1.7,0,3.4,0.7,4.7,1.9l12.4,12.3
	c2.6,2.6,2.6,6.8,0,9.4c-1.2,1.3-2.9,2-4.7,2c-1.8,0.1-3.5-0.6-4.7-1.9L220.6,189z M237.9,147c-1.3-1.2-2-2.9-2-4.7
	c0-1.8,0.7-3.5,2-4.8c1.2-1.3,2.9-1.9,4.7-1.9h17.4c1.8,0,3.4,0.7,4.7,1.9c1.3,1.3,2,3,1.9,4.8c0,3.6-2.9,6.6-6.6,6.6c0,0,0,0,0,0
	h-17.4C240.9,148.9,239.2,148.3,237.9,147z"/>
</svg>
